<svg width="1200" height="340" viewBox="0 0 1200 340" fill="none" xmlns="http://www.w3.org/2000/svg">
  <defs>
    <linearGradient id="bg" x1="0" y1="0" x2="1200" y2="340" gradientUnits="userSpaceOnUse">
      <stop stop-color="#040816"/>
      <stop offset="0.48" stop-color="#08142B"/>
      <stop offset="1" stop-color="#120A2A"/>
    </linearGradient>
    <linearGradient id="accent" x1="260" y1="75" x2="940" y2="255" gradientUnits="userSpaceOnUse">
      <stop stop-color="#22D3EE"/>
      <stop offset="0.5" stop-color="#60A5FA"/>
      <stop offset="1" stop-color="#A78BFA"/>
    </linearGradient>
    <linearGradient id="lineGlow" x1="0" y1="0" x2="1" y2="0">
      <stop stop-color="#22D3EE" stop-opacity="0"/>
      <stop offset="0.25" stop-color="#22D3EE" stop-opacity="0.85"/>
      <stop offset="0.7" stop-color="#A78BFA" stop-opacity="0.85"/>
      <stop offset="1" stop-color="#A78BFA" stop-opacity="0"/>
    </linearGradient>
    <radialGradient id="leftGlow" cx="0" cy="0" r="1" gradientUnits="userSpaceOnUse" gradientTransform="translate(190 175) rotate(12) scale(450 270)">
      <stop stop-color="#0EA5E9" stop-opacity="0.18"/>
      <stop offset="1" stop-color="#0EA5E9" stop-opacity="0"/>
    </radialGradient>
    <radialGradient id="rightGlow" cx="0" cy="0" r="1" gradientUnits="userSpaceOnUse" gradientTransform="translate(1000 70) rotate(140) scale(360 250)">
      <stop stop-color="#8B5CF6" stop-opacity="0.20"/>
      <stop offset="1" stop-color="#8B5CF6" stop-opacity="0"/>
    </radialGradient>
    <pattern id="grid" width="42" height="42" patternUnits="userSpaceOnUse">
      <path d="M42 0H0V42" fill="none" stroke="#93C5FD" stroke-opacity="0.045" stroke-width="1"/>
    </pattern>
    <filter id="textGlow" x="-20%" y="-60%" width="140%" height="220%">
      <feGaussianBlur stdDeviation="5" result="blur"/>
      <feMerge>
        <feMergeNode in="blur"/>
        <feMergeNode in="SourceGraphic"/>
      </feMerge>
    </filter>
  </defs>

  <rect width="1200" height="340" rx="24" fill="url(#bg)"/>
  <rect width="1200" height="340" rx="24" fill="url(#grid)"/>
  <rect width="1200" height="340" rx="24" fill="url(#leftGlow)"/>
  <rect width="1200" height="340" rx="24" fill="url(#rightGlow)"/>

  <g opacity="0.68">
    <circle cx="92" cy="75" r="1.8" fill="#E0F2FE"/>
    <circle cx="182" cy="45" r="1.5" fill="#A5F3FC"/>
    <circle cx="304" cy="92" r="1.4" fill="#93C5FD"/>
    <circle cx="430" cy="40" r="1.7" fill="#C4B5FD"/>
    <circle cx="583" cy="68" r="1.5" fill="#E0E7FF"/>
    <circle cx="809" cy="42" r="1.7" fill="#C4B5FD"/>
    <circle cx="1020" cy="76" r="1.5" fill="#A5F3FC"/>
    <circle cx="1100" cy="120" r="1.8" fill="#BAE6FD"/>
    <circle cx="1148" cy="287" r="1.4" fill="#E0F2FE"/>
    <circle cx="194" cy="284" r="1.5" fill="#C4B5FD"/>
    <circle cx="910" cy="278" r="1.8" fill="#DDD6FE"/>
  </g>

  <g opacity="0.42">
    <path d="M58 270C160 236 220 270 310 232C410 190 492 214 580 195C680 174 744 190 838 169C944 145 1035 158 1140 112" stroke="#1D4ED8" stroke-opacity="0.55" stroke-width="1"/>
    <path d="M64 286C170 252 230 288 322 252C420 214 510 233 600 216C694 198 758 210 850 190C955 168 1042 176 1132 148" stroke="url(#lineGlow)" stroke-width="1.4"/>
  </g>

  <g opacity="0.28" stroke="url(#accent)" stroke-width="1.1">
    <path d="M122 139H210L238 112H308"/>
    <path d="M892 118H966L994 91H1062"/>
    <path d="M112 216H180L208 244H274"/>
    <path d="M932 229H1000L1036 258H1092"/>
  </g>

  <g opacity="0.58">
    <rect x="99" y="126" width="20" height="20" rx="4" stroke="#22D3EE" stroke-opacity="0.38"/>
    <rect x="1072" y="76" width="17" height="17" rx="3" stroke="#A78BFA" stroke-opacity="0.40"/>
    <rect x="1079" y="250" width="15" height="15" rx="3" stroke="#60A5FA" stroke-opacity="0.40"/>
    <circle cx="308" cy="112" r="3" fill="#22D3EE"/>
    <circle cx="994" cy="91" r="3" fill="#A78BFA"/>
    <circle cx="208" cy="244" r="3" fill="#60A5FA"/>
    <circle cx="1036" cy="258" r="3" fill="#22D3EE"/>
  </g>

  <g text-anchor="middle">
    <text x="600" y="154" fill="url(#accent)" font-family="Inter, Segoe UI, Arial, sans-serif" font-size="58" font-weight="800" letter-spacing="8" filter="url(#textGlow)">NAKNAKGEO</text>
    <text x="600" y="205" fill="#E5E7EB" font-family="Inter, Segoe UI, Arial, sans-serif" font-size="22" font-weight="600" letter-spacing="2.8">SOFTWARE ENGINEERING · AI SYSTEMS · AUTOMATION</text>
    <line x1="390" y1="229" x2="810" y2="229" stroke="url(#lineGlow)" stroke-width="2.2" stroke-linecap="round"/>
    <text x="600" y="264" fill="#94A3B8" font-family="JetBrains Mono, Consolas, monospace" font-size="15" letter-spacing="1.5">BUILDING RELIABLE SYSTEMS AND INTELLIGENT TOOLS</text>
  </g>

  <rect x="1" y="1" width="1198" height="338" rx="23" stroke="url(#accent)" stroke-opacity="0.24" stroke-width="2"/>
</svg>
