<svg width="1200" height="340" viewBox="0 0 1200 340" fill="none" xmlns="http://www.w3.org/2000/svg">
  <defs>
    <linearGradient id="bg" x1="0" y1="0" x2="1200" y2="340" gradientUnits="userSpaceOnUse">
      <stop stop-color="#070B17"/>
      <stop offset="0.52" stop-color="#10162A"/>
      <stop offset="1" stop-color="#090D1A"/>
    </linearGradient>
    <linearGradient id="accent" x1="330" y1="80" x2="880" y2="250" gradientUnits="userSpaceOnUse">
      <stop stop-color="#38BDF8"/>
      <stop offset="0.52" stop-color="#818CF8"/>
      <stop offset="1" stop-color="#C084FC"/>
    </linearGradient>
    <radialGradient id="glowLeft" cx="0" cy="0" r="1" gradientUnits="userSpaceOnUse" gradientTransform="translate(225 180) rotate(20) scale(360 250)">
      <stop stop-color="#2563EB" stop-opacity="0.22"/>
      <stop offset="1" stop-color="#2563EB" stop-opacity="0"/>
    </radialGradient>
    <radialGradient id="glowRight" cx="0" cy="0" r="1" gradientUnits="userSpaceOnUse" gradientTransform="translate(1000 85) rotate(145) scale(300 220)">
      <stop stop-color="#7C3AED" stop-opacity="0.20"/>
      <stop offset="1" stop-color="#7C3AED" stop-opacity="0"/>
    </radialGradient>
    <pattern id="grid" width="48" height="48" patternUnits="userSpaceOnUse">
      <path d="M48 0L0 0 0 48" fill="none" stroke="#8B9DCB" stroke-opacity="0.055" stroke-width="1"/>
    </pattern>
    <filter id="softGlow" x="-30%" y="-30%" width="160%" height="160%">
      <feGaussianBlur stdDeviation="9"/>
    </filter>
  </defs>

  <rect width="1200" height="340" rx="24" fill="url(#bg)"/>
  <rect width="1200" height="340" rx="24" fill="url(#grid)"/>
  <rect width="1200" height="340" rx="24" fill="url(#glowLeft)"/>
  <rect width="1200" height="340" rx="24" fill="url(#glowRight)"/>

  <g opacity="0.74">
    <circle cx="90" cy="72" r="2" fill="#E0F2FE"/>
    <circle cx="178" cy="118" r="1.5" fill="#A5B4FC"/>
    <circle cx="303" cy="54" r="1.7" fill="#C4B5FD"/>
    <circle cx="426" cy="101" r="1.3" fill="#BAE6FD"/>
    <circle cx="560" cy="47" r="2" fill="#A5B4FC"/>
    <circle cx="697" cy="88" r="1.4" fill="#E0E7FF"/>
    <circle cx="815" cy="45" r="1.7" fill="#C4B5FD"/>
    <circle cx="932" cy="113" r="1.5" fill="#BAE6FD"/>
    <circle cx="1082" cy="62" r="2" fill="#DDD6FE"/>
    <circle cx="131" cy="255" r="1.7" fill="#C4B5FD"/>
    <circle cx="269" cy="293" r="1.3" fill="#BAE6FD"/>
    <circle cx="908" cy="270" r="1.8" fill="#C4B5FD"/>
    <circle cx="1087" cy="292" r="1.5" fill="#E0F2FE"/>
  </g>

  <g opacity="0.42">
    <path d="M60 270C220 188 334 289 494 216C648 146 758 210 1140 116" stroke="url(#accent)" stroke-width="1.2"/>
    <path d="M67 284C249 219 352 302 504 238C689 160 829 222 1137 151" stroke="#38BDF8" stroke-opacity="0.30" stroke-width="1"/>
    <circle cx="494" cy="216" r="4" fill="#818CF8"/>
    <circle cx="494" cy="216" r="12" fill="#818CF8" fill-opacity="0.16" filter="url(#softGlow)"/>
    <circle cx="829" cy="222" r="3" fill="#38BDF8"/>
  </g>

  <g text-anchor="middle">
    <text x="600" y="142" fill="url(#accent)" font-family="Inter,Segoe UI,Arial,sans-serif" font-size="50" font-weight="800" letter-spacing="8">RATANAK SUON</text>
    <text x="600" y="190" fill="#E5E7EB" font-family="Inter,Segoe UI,Arial,sans-serif" font-size="22" font-weight="500" letter-spacing="2.2">SOFTWARE ENGINEERING · AI SYSTEMS · AUTOMATION</text>
    <line x1="390" y1="218" x2="810" y2="218" stroke="url(#accent)" stroke-width="2" stroke-linecap="round"/>
    <text x="600" y="258" fill="#94A3B8" font-family="Inter,Segoe UI,Arial,sans-serif" font-size="17" letter-spacing="1.1">BUILDING RELIABLE SOFTWARE AND INTELLIGENT TOOLS</text>
  </g>

  <rect x="1" y="1" width="1198" height="338" rx="23" stroke="url(#accent)" stroke-opacity="0.24" stroke-width="2"/>
</svg>
